<svg xmlns="http://www.w3.org/2000/svg" version="1.1" xmlns:xlink="http://www.w3.org/1999/xlink" xmlns:svgjs="http://svgjs.dev/svgjs" width="2000" height="590" viewBox="0 0 2000 590"><g transform="matrix(1,0,0,1,-1.2121212121213603,-0.016294810586714448)"><svg viewBox="0 0 396 117" data-background-color="#f9f9f9" preserveAspectRatio="xMidYMid meet" height="590" width="2000" xmlns="http://www.w3.org/2000/svg" xmlns:xlink="http://www.w3.org/1999/xlink"><g id="tight-bounds" transform="matrix(1,0,0,1,0.24000000000003752,0.0032313437943116696)"><svg viewBox="0 0 395.5199999999999 116.99323878085532" height="116.99323878085532" width="395.5199999999999"><g><svg viewBox="0 0 605.9261626623168 179.23054265756426" height="116.99323878085532" width="395.5199999999999"><g transform="matrix(1,0,0,1,210.40616266231672,37.45298988862891)"><svg viewBox="0 0 395.52 104.32456288030643" height="104.32456288030643" width="395.52"><g id="textblocktransform"><svg viewBox="0 0 395.52 104.32456288030643" height="104.32456288030643" width="395.52" id="textblock"><g><rect width="75.54432" height="5.954543420907723" y="89.99330416983138" fill="#030303" data-fill-palette-color="tertiary"></rect><rect width="75.54432" height="5.954543420907723" y="89.99330416983138" x="319.97568" fill="#030303" data-fill-palette-color="tertiary"></rect></g><g><svg viewBox="0 0 395.52 66.02877887788779" height="66.02877887788779" width="395.52"><g transform="matrix(1,0,0,1,0,0)"><svg width="395.52" viewBox="2.37 -35.82 266.29 44.46" height="66.02877887788779" data-palette-color="#030303"><path d="M27.22 0L22.88 0 22.88-12.13 8.86-12.13 2.37-18.63 2.37-25.93 8.86-32.4 12.52-32.4 12.52-20.9 27.42-20.9 33.69-14.4 33.69-6.47 27.22 0ZM22.88-26.56L14.23-26.56 14.23-32.4 27.2-32.4 32.81-26.76 32.81-23.32 22.88-23.32 22.88-26.56ZM2.37-6.47L2.37-9.72 13.16-9.72 13.16-5.86 21.17-5.86 21.17 0 7.81 0 2.37-6.47ZM38.6 0L38.6-35.82 49.39-35.82 49.39 0 38.6 0ZM55.86 0L55.86-19.46 51.1-19.46 51.1-22.73 54.27-25.93 60.18-25.93 66.67-19.46 66.67 0 55.86 0ZM100.43-19.46L100.43-6.47 93.96 0 86.74 0 86.74-6.05 89.42-6.05 89.42-19.46 86.74-19.46 86.74-25.93 93.96-25.93 100.43-19.46ZM82.22-19.46L82.22-6.05 85.03-6.05 85.03 0 77.78 0 71.31-6.47 71.31-19.46 77.78-25.93 85.03-25.93 85.03-19.46 82.22-19.46ZM116.08 8.64L105.29 8.64 105.29-25.93 116.08-25.93 116.08 8.64ZM122.55-6.05L122.55-19.46 117.79-19.46 117.79-22.73 120.96-25.93 126.87-25.93 133.37-19.46 133.37-6.47 126.87 0 117.79 0 117.79-6.05 122.55-6.05ZM161.78-32.4L161.78 0 157.48 0 150.99-6.47 150.99-25.93 157.48-32.4 161.78-32.4ZM170.67-25.93L163.49-25.93 163.49-32.4 174.99-32.4 181.46-25.93 181.46-19.41 170.67-19.41 170.67-25.93ZM174.99 0L163.49 0 163.49-6.47 170.67-6.47 170.67-11.21 181.46-11.21 181.46-6.47 174.99 0ZM213.95 0L203.4 0 203.4-19.46 188.05-19.46 188.05-22.68 191.29-25.93 207.48-25.93 213.95-19.46 213.95 0ZM190.22-15.09L201.69-15.09 201.69-10.6 196.13-10.6 196.13-6.05 201.69-6.05 201.69-3.2 198.47 0 190.22 0 185.87-4.27 185.87-10.77 190.22-15.09ZM235.92-13.16L235.92-19.46 231.33-19.46 231.33-22.29 234.94-25.93 241.49-25.93 246.74-19.87 246.74-13.16 235.92-13.16ZM229.6 0L218.81 0 218.81-25.93 229.6-25.93 229.6 0ZM261.14-32.4L261.14-6.47 268.27-6.47 268.27 0 256.84 0 250.35-6.47 250.35-19.46 248.2-19.46 248.2-25.93 250.35-25.93 250.35-28.74 261.14-32.4ZM268.66-19.46L262.85-19.46 262.85-25.93 268.66-25.93 268.66-19.46Z" opacity="1" transform="matrix(1,0,0,1,0,0)" fill="#030303" class="wordmark-text-0" data-fill-palette-color="primary" id="text-0"></path></svg></g></svg></g><g transform="matrix(1,0,0,1,75.54432,81.61658888026403)"><svg viewBox="0 0 244.43135999999998 22.70797400004241" height="22.70797400004241" width="244.43135999999998"><g transform="matrix(1,0,0,1,8,0)"><svg width="228.43135999999998" viewBox="3.2466796875 -35.8 461.31887586805504 45.862578216657994" height="22.70797400004241" data-palette-color="#030303"><path d="M5.65 0L5.65 0Q4.6-0.05 3.9-0.83 3.2-1.6 3.25-2.6L3.25-2.6Q3.35-4.85 3.4-6.2L3.4-6.2Q3.45-7.95 3.5-9.98 3.55-12 3.58-13.4 3.6-14.8 3.58-16.78 3.55-18.75 3.55-19.83 3.55-20.9 3.53-23.63 3.5-26.35 3.48-27.08 3.45-27.8 3.4-30.28 3.35-32.75 3.35-33.25L3.35-33.25Q3.35-34.3 4.05-35.05 4.75-35.8 5.8-35.8 6.85-35.8 7.6-35.1 8.35-34.4 8.35-33.35L8.35-33.35Q8.5-26.65 8.5-24.95L8.5-24.95Q9.25-25.45 10.05-25.75L10.05-25.75Q13.45-27 16.2-26.43 18.95-25.85 21.15-23.8L21.15-23.8Q23.05-22 24.28-19.4 25.5-16.8 25.85-14.7L25.85-14.7Q26.7-8.35 23.65-4.05L23.65-4.05Q21.9-1.55 19.05-0.5L19.05-0.5Q16.25 0.6 12.6 0L12.6 0Q10.15-0.4 8.1-1.6L8.1-1.6Q7.8-0.85 7.13-0.4 6.45 0.05 5.65 0L5.65 0ZM13.4-4.9L13.4-4.9Q17.65-4.25 19.6-6.95L19.6-6.95Q21.5-9.65 20.9-14.05L20.9-14.05Q20.3-17.75 17.75-20.15L17.75-20.15Q15.25-22.45 11.85-21.15L11.85-21.15Q11.5-21 11.23-20.83 10.95-20.65 10.65-20.3L10.65-20.3 10.05-19.8Q9.85-19.55 9.35-18.98 8.85-18.4 8.55-18.1L8.55-18.1Q8.6-12.9 8.45-7.95L8.45-7.95 8.5-7.9Q10.2-5.45 13.4-4.9L13.4-4.9ZM49.85 0L49.85 0Q48.95-0.05 48.27-0.7 47.6-1.35 47.5-2.9L47.5-2.9Q45.2-0.9 42.75-0.3L42.75-0.3Q39.25 0.6 36.35-1.45L36.35-1.45Q33.55-3.45 31.95-8.05L31.95-8.05Q31.4-9.65 31.1-11.35L31.1-11.35Q30.8-13.1 30.82-15.08 30.85-17.05 30.9-18.28 30.95-19.5 31.15-21.63 31.35-23.75 31.4-24.3L31.4-24.3Q31.5-25.3 32.27-25.98 33.05-26.65 34.07-26.58 35.1-26.5 35.77-25.73 36.45-24.95 36.4-23.9L36.4-23.9Q36.35-23.15 36.12-21.05 35.9-18.95 35.87-17.93 35.85-16.9 35.82-15.23 35.8-13.55 36.02-12.23 36.25-10.9 36.65-9.65L36.65-9.65Q37.75-6.6 39.45-5.5L39.45-5.5Q40.15-5.05 41.75-5.05L41.75-5.05Q43.9-5.4 45.22-6.3 46.55-7.2 47.7-10.4L47.7-10.4Q47.8-17.05 47.55-23.9L47.55-23.9Q47.5-24.95 48.22-25.7 48.95-26.45 49.97-26.5 51-26.55 51.75-25.83 52.5-25.1 52.55-24.1L52.55-24.1Q52.95-12.3 52.5-2.35L52.5-2.35Q52.45-1.35 51.67-0.65 50.9 0.05 49.85 0L49.85 0ZM58.65 10.05L58.65 10.05Q57.6 10.15 56.8 9.47 56 8.8 55.9 7.78 55.8 6.75 56.47 5.95 57.15 5.15 58.15 5.05L58.15 5.05Q58.65 5 59.35 4.95 60.05 4.9 60.27 4.88 60.5 4.85 60.85 4.78 61.2 4.7 61.4 4.55L61.4 4.55 61.9 4.25Q63.1 3.65 64.05 0.9L64.05 0.9Q64.34 0.05 64.65-0.3L64.65-0.3Q64.3-0.7 64.09-1.25L64.09-1.25Q63.2-5.1 60.4-12.65L60.4-12.65Q57.9-19.3 56.7-23.3L56.7-23.3Q56.4-24.3 56.9-25.2 57.4-26.1 58.4-26.4 59.4-26.7 60.3-26.2 61.2-25.7 61.5-24.7L61.5-24.7Q62.45-21.5 65.09-14.4L65.09-14.4 67-9.2Q70.5-19.9 73.4-25.25L73.4-25.25Q73.9-26.15 74.9-26.45 75.9-26.75 76.8-26.25 77.7-25.75 78-24.75 78.3-23.75 77.8-22.85L77.8-22.85Q76.5-20.45 75.09-17 73.7-13.55 72.9-11.2 72.09-8.85 70.8-4.65L70.8-4.65Q70.5-3.65 70.4-3.25L70.4-3.25Q70.15-2.6 69.7-0.65L69.7-0.65Q69.15 1.2 68.8 2.35L68.8 2.35Q67.4 6.25 65 8.15L65 8.15Q64.3 8.7 63.6 9.08 62.9 9.45 62.12 9.63 61.35 9.8 60.9 9.88 60.45 9.95 59.62 9.98 58.8 10 58.65 10.05L58.65 10.05ZM122.44-2.2L122.44-2.2Q122.39-3.1 122.31-3.88 122.24-4.65 122.22-5.03 122.19-5.4 122.17-5.68 122.14-5.95 122.14-6.3L122.14-6.3 122.14-9.15Q122.14-9.95 122.22-11.98 122.29-14 122.27-15.4 122.24-16.8 121.99-18.05L121.99-18.05Q121.69-19.8 120.94-20.58 120.19-21.35 118.64-21.35L118.64-21.35Q115.19-21.3 111.74-17.15L111.74-17.15Q111.89-15.65 111.89-11.35L111.89-11.35Q111.89-8.2 112.04-2.55L112.04-2.55Q112.09-1.55 111.37-0.8 110.64-0.05 109.62 0 108.59 0.05 107.84-0.68 107.09-1.4 107.04-2.45L107.04-2.45Q106.89-8.1 106.89-11.35L106.89-11.35 106.89-13.85Q106.89-14.1 106.87-14.9 106.84-15.7 106.81-16.07 106.79-16.45 106.72-17.07 106.64-17.7 106.56-18.18 106.49-18.65 106.34-19.1L106.34-19.1Q105.94-20.5 105.24-21.05L105.24-21.05Q104.49-21.65 102.99-21.5L102.99-21.5Q101.34-21.35 100.14-20.6L100.14-20.6Q98.99-19.85 97.79-18.2L97.79-18.2Q97.54-17.9 97.24-17.65L97.24-17.65Q97.44-7.65 97.24-2.4L97.24-2.4Q97.19-1.35 96.44-0.65 95.69 0.05 94.64 0 93.59-0.05 92.89-0.8 92.19-1.55 92.24-2.6L92.24-2.6Q92.34-8.15 92.34-9.73 92.34-11.3 92.22-16.98 92.09-22.65 92.09-24.25L92.09-24.25Q92.09-25 92.81-25.75 93.54-26.5 94.54-26.5 95.54-26.5 96.34-25.88 97.14-25.25 97.09-23.55L97.09-23.55Q99.34-26.2 102.59-26.5L102.59-26.5Q106.04-26.8 108.34-24.95L108.34-24.95Q109.54-24 110.49-22.3L110.49-22.3Q113.59-26.2 118.64-26.5L118.64-26.5Q122.34-26.55 124.59-24.2L124.59-24.2Q126.34-22.15 126.94-18.95L126.94-18.95Q127.19-17.45 127.24-15.68 127.29-13.9 127.22-11.68 127.14-9.45 127.14-9.15L127.14-9.15 127.14-6.4Q127.14-6.15 127.17-5.9 127.19-5.65 127.22-5.33 127.24-5 127.29-4.25 127.34-3.5 127.44-2.6L127.44-2.6Q127.49-1.55 126.81-0.78 126.14 0 125.12 0.08 124.09 0.15 123.31-0.53 122.54-1.2 122.44-2.2L122.44-2.2ZM147.04-0.35L147.04-0.35Q140.44 1.25 136.49-3L136.49-3Q133.34-6.25 132.59-11.35L132.59-11.35Q132.04-15.35 133.54-18.95L133.54-18.95Q135.34-23.55 139.24-25.75L139.24-25.75Q140.04-26.2 141.24-26.4L141.24-26.4Q141.29-26.4 141.94-26.45L141.94-26.45Q142.19-26.5 142.34-26.55L142.34-26.55Q143.09-26.7 143.84-26.4L143.84-26.4Q144.04-26.4 144.79-26.38 145.54-26.35 145.79-26.33 146.04-26.3 146.66-26.23 147.29-26.15 147.69-26.05L147.69-26.05 148.64-25.7Q149.24-25.5 149.79-25.2 150.34-24.9 150.99-24.5L150.99-24.5Q154.24-22.3 155.49-18.32 156.74-14.35 156.14-11.9L156.14-11.9Q155.69-9.2 154.54-6.88 153.39-4.55 151.36-2.75 149.34-0.95 147.04-0.35L147.04-0.35ZM145.49-5.55L145.49-5.55Q147.64-5.85 149.16-7.78 150.69-9.7 151.16-11.85 151.64-14 150.81-16.57 149.99-19.15 148.19-20.3L148.19-20.3Q147.64-20.7 147.29-20.88 146.94-21.05 146.46-21.18 145.99-21.3 145.71-21.3 145.44-21.3 144.54-21.35 143.64-21.4 142.94-21.45L142.94-21.45Q142.79-21.45 142.59-21.5L142.59-21.5Q142.04-21.45 141.99-21.45L141.99-21.45 141.64-21.35Q139.44-20.15 138.26-17.53 137.09-14.9 137.59-12.1L137.59-12.1Q138.14-8.7 140.04-6.95L140.04-6.95Q142.09-5.05 145.49-5.55L145.49-5.55ZM164.49 0L164.49 0Q163.49 0 162.74-0.68 161.99-1.35 161.99-2.5L161.99-2.5 161.89-12.7Q161.84-16.15 161.84-21.3L161.84-21.3 161.84-24.25Q161.84-25.4 162.53-26.05 163.24-26.7 164.24-26.7L164.24-26.7Q165.28-26.7 166.06-26.03 166.84-25.35 166.84-24.15L166.84-24.15 166.84-22.65Q167.39-23.85 168.89-24.7L168.89-24.7Q170.94-25.95 173.39-25.95L173.39-25.95Q175.24-25.95 176.24-25.35 177.24-24.75 177.24-23.2L177.24-23.2Q177.24-22.2 176.64-21.53 176.03-20.85 174.89-20.85L174.89-20.85Q170.69-20.85 169.09-19.7L169.09-19.7Q168.19-19.1 167.51-18.25 166.84-17.4 166.84-16.6L166.84-16.6 166.94-10.35 166.99-2.5Q166.99-1.35 166.24-0.68 165.49 0 164.49 0L164.49 0ZM191.23 0.25L191.23 0.25Q187.53 0 184.78-1.25 182.03-2.5 180.58-4.4 179.13-6.3 178.48-7.9 177.83-9.5 177.68-11.08 177.53-12.65 177.83-15.15L177.83-15.15Q178.18-17.25 179.31-19.3 180.43-21.35 182.31-22.98 184.18-24.6 186.83-25.48 189.48-26.35 192.48-26L192.48-26Q195.38-25.65 197.43-24.43 199.48-23.2 200.93-21.3L200.93-21.3Q202.18-19.7 202.46-18.9 202.73-18.1 202.96-17.4 203.18-16.7 203.33-16.2 203.48-15.7 203.61-15.18 203.73-14.65 203.78-13.95L203.78-13.95Q203.83-13 203.43-12.2 203.03-11.4 202.23-10.95L202.23-10.95Q201.58-10.7 200.83-10.7L200.83-10.7 192.28-10.55Q183.28-10.5 183.28-10.35L183.28-10.35 183.13-10.35Q183.78-7.8 185.86-6.35 187.93-4.9 191.53-4.65L191.53-4.65Q193.48-4.55 194.78-4.85L194.78-4.85Q196.23-5.25 196.88-5.58 197.53-5.9 198.48-6.45L198.48-6.45Q199.43-6.8 200.38-6.35 201.33-5.9 201.68-4.95 202.03-4 201.61-3.1 201.18-2.2 200.28-1.7L200.28-1.7Q199.48-1.25 198.63-0.93 197.78-0.6 196.13-0.15 194.48 0.3 191.23 0.25L191.23 0.25ZM183.23-15.25L183.23-15.25Q186.13-15.4 198.28-15.55L198.28-15.55Q197.83-17.05 196.83-18.4L196.83-18.4Q194.83-20.7 191.88-21.05L191.88-21.05Q188.78-21.45 186.43-19.73 184.08-18 183.23-15.25L183.23-15.25ZM234.38 0.25L234.38 0.25Q230.68 0 227.93-1.25 225.18-2.5 223.73-4.4 222.28-6.3 221.63-7.9 220.98-9.5 220.83-11.08 220.68-12.65 220.98-15.15L220.98-15.15Q221.33-17.25 222.45-19.3 223.58-21.35 225.45-22.98 227.33-24.6 229.98-25.48 232.63-26.35 235.63-26L235.63-26Q238.53-25.65 240.58-24.43 242.63-23.2 244.08-21.3L244.08-21.3Q245.33-19.7 245.6-18.9 245.88-18.1 246.1-17.4 246.33-16.7 246.48-16.2 246.63-15.7 246.75-15.18 246.88-14.65 246.93-13.95L246.93-13.95Q246.98-13 246.58-12.2 246.18-11.4 245.38-10.95L245.38-10.95Q244.73-10.7 243.98-10.7L243.98-10.7 235.43-10.55Q226.43-10.5 226.43-10.35L226.43-10.35 226.28-10.35Q226.93-7.8 229-6.35 231.08-4.9 234.68-4.65L234.68-4.65Q236.63-4.55 237.93-4.85L237.93-4.85Q239.38-5.25 240.03-5.58 240.68-5.9 241.63-6.45L241.63-6.45Q242.58-6.8 243.53-6.35 244.48-5.9 244.83-4.95 245.18-4 244.75-3.1 244.33-2.2 243.43-1.7L243.43-1.7Q242.63-1.25 241.78-0.93 240.93-0.6 239.28-0.15 237.63 0.3 234.38 0.25L234.38 0.25ZM226.38-15.25L226.38-15.25Q229.28-15.4 241.43-15.55L241.43-15.55Q240.98-17.05 239.98-18.4L239.98-18.4Q237.98-20.7 235.03-21.05L235.03-21.05Q231.93-21.45 229.58-19.73 227.23-18 226.38-15.25L226.38-15.25ZM254.33 0L254.33 0Q253.33 0 252.58-0.68 251.83-1.35 251.83-2.5L251.83-2.5Q251.83-6.45 251.78-9.3L251.78-9.3Q251.68-17.8 251.68-24.05L251.68-24.05Q251.68-25.2 252.38-25.85 253.08-26.5 254.08-26.5L254.08-26.5Q255.13-26.5 255.9-25.83 256.68-25.15 256.68-23.95L256.68-23.95 256.68-22.4Q259.78-26.45 264.83-26.45L264.83-26.45Q269.18-26.45 271.5-23.4 273.83-20.35 273.83-15.2L273.83-15.2Q273.83-9.5 273.68-7.7L273.68-7.7 273.43-4.35 273.28-2.2Q273.18-1.2 272.48-0.6 271.78 0 270.83 0L270.83 0Q269.83 0 269.08-0.68 268.33-1.35 268.33-2.5L268.33-2.5Q268.33-3.3 268.68-8.05L268.68-8.05Q268.93-11.3 268.93-13.15L268.93-13.15Q268.93-17.4 267.73-19.43 266.53-21.45 264.03-21.45L264.03-21.45Q262.23-21.45 260.3-20.35 258.38-19.25 256.68-17.55L256.68-17.55 256.78-10.45 256.83-2.5Q256.83-1.35 256.08-0.68 255.33 0 254.33 0L254.33 0ZM279.47 8.9L279.47 8.9Q278.57 9.45 277.57 9.18 276.57 8.9 276.05 8 275.52 7.1 275.8 6.1 276.07 5.1 276.97 4.6L276.97 4.6Q277.02 4.55 278.77 3.65L278.77 3.65Q279.37 3.35 279.62 3.15L279.62 3.15Q279.72 2.9 279.82 2.45L279.82 2.45Q280.12 1.45 280.27-0.35L280.27-0.35Q280.57-3.55 280.52-8.85L280.52-8.85Q280.47-12.4 279.92-24.1L279.92-24.1Q279.87-25.1 280.57-25.88 281.27-26.65 282.3-26.7 283.32-26.75 284.1-26.05 284.87-25.35 284.92-24.3L284.92-24.3Q285.47-12.55 285.52-8.9L285.52-8.9Q285.57-3.45 285.22 0.15L285.22 0.15Q285.02 2.3 284.67 3.65L284.67 3.65Q284.22 5.7 283.22 6.65L283.22 6.65Q282.42 7.45 281.02 8.1L281.02 8.1Q280.97 8.15 280.4 8.43 279.82 8.7 279.47 8.9L279.47 8.9ZM283.82-35L283.82-35Q284.57-34.3 284.57-33.25 284.57-32.2 283.85-31.48 283.12-30.75 282.07-30.75 281.02-30.75 280.3-31.48 279.57-32.2 279.57-33.25 279.57-34.3 280.3-35.02 281.02-35.75 282.07-35.75 283.12-35.75 283.82-35L283.82-35ZM305.37-0.35L305.37-0.35Q298.77 1.25 294.82-3L294.82-3Q291.67-6.25 290.92-11.35L290.92-11.35Q290.37-15.35 291.87-18.95L291.87-18.95Q293.67-23.55 297.57-25.75L297.57-25.75Q298.37-26.2 299.57-26.4L299.57-26.4Q299.62-26.4 300.27-26.45L300.27-26.45Q300.52-26.5 300.67-26.55L300.67-26.55Q301.42-26.7 302.17-26.4L302.17-26.4Q302.37-26.4 303.12-26.38 303.87-26.35 304.12-26.33 304.37-26.3 305-26.23 305.62-26.15 306.02-26.05L306.02-26.05 306.97-25.7Q307.57-25.5 308.12-25.2 308.67-24.9 309.32-24.5L309.32-24.5Q312.57-22.3 313.82-18.32 315.07-14.35 314.47-11.9L314.47-11.9Q314.02-9.2 312.87-6.88 311.72-4.55 309.7-2.75 307.67-0.95 305.37-0.35L305.37-0.35ZM303.82-5.55L303.82-5.55Q305.97-5.85 307.5-7.78 309.02-9.7 309.5-11.85 309.97-14 309.15-16.57 308.32-19.15 306.52-20.3L306.52-20.3Q305.97-20.7 305.62-20.88 305.27-21.05 304.8-21.18 304.32-21.3 304.05-21.3 303.77-21.3 302.87-21.35 301.97-21.4 301.27-21.45L301.27-21.45Q301.12-21.45 300.92-21.5L300.92-21.5Q300.37-21.45 300.32-21.45L300.32-21.45 299.97-21.35Q297.77-20.15 296.6-17.53 295.42-14.9 295.92-12.1L295.92-12.1Q296.47-8.7 298.37-6.95L298.37-6.95Q300.42-5.05 303.82-5.55L303.82-5.55ZM319.42 10.05L319.42 10.05Q318.37 10.15 317.57 9.47 316.77 8.8 316.67 7.78 316.57 6.75 317.24 5.95 317.92 5.15 318.92 5.05L318.92 5.05Q319.42 5 320.12 4.95 320.82 4.9 321.04 4.88 321.27 4.85 321.62 4.78 321.97 4.7 322.17 4.55L322.17 4.55 322.67 4.25Q323.87 3.65 324.82 0.9L324.82 0.9Q325.12 0.05 325.42-0.3L325.42-0.3Q325.07-0.7 324.87-1.25L324.87-1.25Q323.97-5.1 321.17-12.65L321.17-12.65Q318.67-19.3 317.47-23.3L317.47-23.3Q317.17-24.3 317.67-25.2 318.17-26.1 319.17-26.4 320.17-26.7 321.07-26.2 321.97-25.7 322.27-24.7L322.27-24.7Q323.22-21.5 325.87-14.4L325.87-14.4 327.77-9.2Q331.27-19.9 334.17-25.25L334.17-25.25Q334.67-26.15 335.67-26.45 336.67-26.75 337.57-26.25 338.47-25.75 338.77-24.75 339.07-23.75 338.57-22.85L338.57-22.85Q337.27-20.45 335.87-17 334.47-13.55 333.67-11.2 332.87-8.85 331.57-4.65L331.57-4.65Q331.27-3.65 331.17-3.25L331.17-3.25Q330.92-2.6 330.47-0.65L330.47-0.65Q329.92 1.2 329.57 2.35L329.57 2.35Q328.17 6.25 325.77 8.15L325.77 8.15Q325.07 8.7 324.37 9.08 323.67 9.45 322.89 9.63 322.12 9.8 321.67 9.88 321.22 9.95 320.39 9.98 319.57 10 319.42 10.05L319.42 10.05ZM383.21-2.2L383.21-2.2Q383.16-3.1 383.09-3.88 383.01-4.65 382.99-5.03 382.96-5.4 382.94-5.68 382.91-5.95 382.91-6.3L382.91-6.3 382.91-9.15Q382.91-9.95 382.99-11.98 383.06-14 383.04-15.4 383.01-16.8 382.76-18.05L382.76-18.05Q382.46-19.8 381.71-20.58 380.96-21.35 379.41-21.35L379.41-21.35Q375.96-21.3 372.51-17.15L372.51-17.15Q372.66-15.65 372.66-11.35L372.66-11.35Q372.66-8.2 372.81-2.55L372.81-2.55Q372.86-1.55 372.14-0.8 371.41-0.05 370.39 0 369.36 0.05 368.61-0.68 367.86-1.4 367.81-2.45L367.81-2.45Q367.66-8.1 367.66-11.35L367.66-11.35 367.66-13.85Q367.66-14.1 367.64-14.9 367.61-15.7 367.59-16.07 367.56-16.45 367.49-17.07 367.41-17.7 367.34-18.18 367.26-18.65 367.11-19.1L367.11-19.1Q366.71-20.5 366.01-21.05L366.01-21.05Q365.26-21.65 363.76-21.5L363.76-21.5Q362.11-21.35 360.91-20.6L360.91-20.6Q359.76-19.85 358.56-18.2L358.56-18.2Q358.31-17.9 358.01-17.65L358.01-17.65Q358.21-7.65 358.01-2.4L358.01-2.4Q357.96-1.35 357.21-0.65 356.46 0.05 355.41 0 354.36-0.05 353.66-0.8 352.96-1.55 353.01-2.6L353.01-2.6Q353.11-8.15 353.11-9.73 353.11-11.3 352.99-16.98 352.86-22.65 352.86-24.25L352.86-24.25Q352.86-25 353.59-25.75 354.31-26.5 355.31-26.5 356.31-26.5 357.11-25.88 357.91-25.25 357.86-23.55L357.86-23.55Q360.11-26.2 363.36-26.5L363.36-26.5Q366.81-26.8 369.11-24.95L369.11-24.95Q370.31-24 371.26-22.3L371.26-22.3Q374.36-26.2 379.41-26.5L379.41-26.5Q383.11-26.55 385.36-24.2L385.36-24.2Q387.11-22.15 387.71-18.95L387.71-18.95Q387.96-17.45 388.01-15.68 388.06-13.9 387.99-11.68 387.91-9.45 387.91-9.15L387.91-9.15 387.91-6.4Q387.91-6.15 387.94-5.9 387.96-5.65 387.99-5.33 388.01-5 388.06-4.25 388.11-3.5 388.21-2.6L388.21-2.6Q388.26-1.55 387.59-0.78 386.91 0 385.89 0.08 384.86 0.15 384.09-0.53 383.31-1.2 383.21-2.2L383.21-2.2ZM407.81-0.35L407.81-0.35Q401.21 1.25 397.26-3L397.26-3Q394.11-6.25 393.36-11.35L393.36-11.35Q392.81-15.35 394.31-18.95L394.31-18.95Q396.11-23.55 400.01-25.75L400.01-25.75Q400.81-26.2 402.01-26.4L402.01-26.4Q402.06-26.4 402.71-26.45L402.71-26.45Q402.96-26.5 403.11-26.55L403.11-26.55Q403.86-26.7 404.61-26.4L404.61-26.4Q404.81-26.4 405.56-26.38 406.31-26.35 406.56-26.33 406.81-26.3 407.44-26.23 408.06-26.15 408.46-26.05L408.46-26.05 409.41-25.7Q410.01-25.5 410.56-25.2 411.11-24.9 411.76-24.5L411.76-24.5Q415.01-22.3 416.26-18.32 417.51-14.35 416.91-11.9L416.91-11.9Q416.46-9.2 415.31-6.88 414.16-4.55 412.14-2.75 410.11-0.95 407.81-0.35L407.81-0.35ZM406.26-5.55L406.26-5.55Q408.41-5.85 409.94-7.78 411.46-9.7 411.94-11.85 412.41-14 411.59-16.57 410.76-19.15 408.96-20.3L408.96-20.3Q408.41-20.7 408.06-20.88 407.71-21.05 407.24-21.18 406.76-21.3 406.49-21.3 406.21-21.3 405.31-21.35 404.41-21.4 403.71-21.45L403.71-21.45Q403.56-21.45 403.36-21.5L403.36-21.5Q402.81-21.45 402.76-21.45L402.76-21.45 402.41-21.35Q400.21-20.15 399.04-17.53 397.86-14.9 398.36-12.1L398.36-12.1Q398.91-8.7 400.81-6.95L400.81-6.95Q402.86-5.05 406.26-5.55L406.26-5.55ZM425.26 0L425.26 0Q424.26 0 423.51-0.68 422.76-1.35 422.76-2.5L422.76-2.5 422.66-12.7Q422.61-16.15 422.61-21.3L422.61-21.3 422.61-24.25Q422.61-25.4 423.31-26.05 424.01-26.7 425.01-26.7L425.01-26.7Q426.06-26.7 426.83-26.03 427.61-25.35 427.61-24.15L427.61-24.15 427.61-22.65Q428.16-23.85 429.66-24.7L429.66-24.7Q431.71-25.95 434.16-25.95L434.16-25.95Q436.01-25.95 437.01-25.35 438.01-24.75 438.01-23.2L438.01-23.2Q438.01-22.2 437.41-21.53 436.81-20.85 435.66-20.85L435.66-20.85Q431.46-20.85 429.86-19.7L429.86-19.7Q428.96-19.1 428.28-18.25 427.61-17.4 427.61-16.6L427.61-16.6 427.71-10.35 427.76-2.5Q427.76-1.35 427.01-0.68 426.26 0 425.26 0L425.26 0ZM452.01 0.25L452.01 0.25Q448.31 0 445.56-1.25 442.81-2.5 441.36-4.4 439.91-6.3 439.26-7.9 438.61-9.5 438.46-11.08 438.31-12.65 438.61-15.15L438.61-15.15Q438.96-17.25 440.08-19.3 441.21-21.35 443.08-22.98 444.96-24.6 447.61-25.48 450.26-26.35 453.26-26L453.26-26Q456.16-25.65 458.21-24.43 460.26-23.2 461.71-21.3L461.71-21.3Q462.96-19.7 463.23-18.9 463.51-18.1 463.73-17.4 463.96-16.7 464.11-16.2 464.26-15.7 464.38-15.18 464.51-14.65 464.56-13.95L464.56-13.95Q464.61-13 464.21-12.2 463.81-11.4 463.01-10.95L463.01-10.95Q462.36-10.7 461.61-10.7L461.61-10.7 453.06-10.55Q444.06-10.5 444.06-10.35L444.06-10.35 443.91-10.35Q444.56-7.8 446.63-6.35 448.71-4.9 452.31-4.65L452.31-4.65Q454.26-4.55 455.56-4.85L455.56-4.85Q457.01-5.25 457.66-5.58 458.31-5.9 459.26-6.45L459.26-6.45Q460.21-6.8 461.16-6.35 462.11-5.9 462.46-4.95 462.81-4 462.38-3.1 461.96-2.2 461.06-1.7L461.06-1.7Q460.26-1.25 459.41-0.93 458.56-0.6 456.91-0.15 455.26 0.3 452.01 0.25L452.01 0.25ZM444.01-15.25L444.01-15.25Q446.91-15.4 459.06-15.55L459.06-15.55Q458.61-17.05 457.61-18.4L457.61-18.4Q455.61-20.7 452.66-21.05L452.66-21.05Q449.56-21.45 447.21-19.73 444.86-18 444.01-15.25L444.01-15.25Z" opacity="1" transform="matrix(1,0,0,1,0,0)" fill="#030303" class="slogan-text-1" data-fill-palette-color="secondary" id="text-1"></path></svg></g></svg></g></svg></g></svg></g><g><svg viewBox="0 0 179.23054265756426 179.23054265756426" height="179.23054265756426" width="179.23054265756426"><g><svg></svg></g><g id="icon-0"><svg viewBox="0 0 179.23054265756426 179.23054265756426" height="179.23054265756426" width="179.23054265756426"><g><path d="M0 89.615c0-49.493 40.122-89.615 89.615-89.615 49.493 0 89.615 40.122 89.616 89.615 0 49.493-40.122 89.615-89.616 89.616-49.493 0-89.615-40.122-89.615-89.616zM89.615 173.276c46.205 0 83.661-37.456 83.661-83.661 0-46.205-37.456-83.661-83.661-83.66-46.205 0-83.661 37.456-83.66 83.66 0 46.205 37.456 83.661 83.66 83.661z" data-fill-palette-color="tertiary" fill="#030303" stroke="transparent"></path></g><g transform="matrix(1,0,0,1,38.08668860639838,65.92928446491776)"><svg viewBox="0 0 103.05716544476749 47.371973727728744" height="47.371973727728744" width="103.05716544476749"><g><svg xmlns="http://www.w3.org/2000/svg" xmlns:xlink="http://www.w3.org/1999/xlink" xmlns:a="http://ns.adobe.com/AdobeSVGViewerExtensions/3.0/" version="1.1" x="0" y="0" viewBox="0 0 37.773 17.363" enable-background="new -1 -17.539 40 40" xml:space="preserve" height="47.371973727728744" width="103.05716544476749" class="icon-cg-0" data-fill-palette-color="accent" id="cg-0"><path d="M33.41 5.583C35.332 3.904 36.767 2.045 37.773 0H0c1.007 2.045 2.441 3.904 4.363 5.583 3.997 3.569 8.848 5.34 14.523 5.34C24.562 10.923 29.414 9.152 33.41 5.583L33.41 5.583z" fill="#030303" data-fill-palette-color="accent"></path><path d="M23.829 11.35c-0.822 0-1.555 0.306-2.135 0.885-0.581 0.58-0.885 1.313-0.885 2.137 0 0.183 0.029 0.366 0.061 0.549 0.093 0.579 0.366 1.098 0.824 1.557 0.58 0.579 1.313 0.885 2.135 0.885 0.824 0 1.525-0.306 2.105-0.885 0.458-0.459 0.732-0.978 0.855-1.557 0.029-0.183 0.029-0.366 0.029-0.549 0-0.824-0.306-1.557-0.885-2.137C25.354 11.655 24.653 11.35 23.829 11.35L23.829 11.35z" fill="#030303" data-fill-palette-color="accent"></path><path d="M16.049 12.234c-0.58-0.579-1.281-0.885-2.105-0.885s-1.556 0.306-2.136 0.885c-0.58 0.58-0.885 1.313-0.885 2.137 0 0.183 0.03 0.366 0.061 0.549 0.092 0.579 0.366 1.098 0.824 1.557 0.58 0.579 1.312 0.885 2.136 0.885s1.525-0.306 2.105-0.885c0.458-0.459 0.732-0.978 0.854-1.557 0.031-0.183 0.031-0.366 0.031-0.549C16.934 13.547 16.628 12.814 16.049 12.234L16.049 12.234z" fill="#030303" data-fill-palette-color="accent"></path></svg></g></svg></g></svg></g></svg></g></svg></g><defs></defs></svg><rect width="395.5199999999999" height="116.99323878085532" fill="none" stroke="none" visibility="hidden"></rect></g></svg></g></svg>